<svg width="243" height="158" viewBox="0 0 243 158" fill="none" xmlns="http://www.w3.org/2000/svg">
<g filter="url(#filter0_f_1_3155)">
<path d="M166.827 36.833C168.972 35.7474 172.036 37.5088 173.695 40.7657C175.343 44.0226 174.945 50.5565 172.81 51.6089L152.106 58.5548C149.972 59.6404 146.897 57.879 145.249 54.6221C143.601 51.3652 143.999 44.8535 146.134 43.7457L166.307 37.0989L166.827 36.833Z" fill="url(#paint0_linear_1_3155)"/>
<path d="M79.9096 67.6421L93.6134 74.588C95.7481 75.6957 98.8229 73.9122 100.471 70.6553C102.119 67.3984 101.721 58.8645 99.586 57.7789L86.4131 51.1321L85.8933 50.8662C83.7475 49.7584 80.6838 51.542 79.0247 54.7989C77.3657 58.0558 77.7639 66.5564 79.9096 67.6421Z" fill="url(#paint1_linear_1_3155)"/>
<path d="M137.502 75.9915H176.792L168.081 51.9915H183.371L198.661 75.9915L206.713 92.3484L201.713 103.421L210.213 117.645H151.489V123.848H101.231V117.645H66.4646V103.421H70.0592L78.0592 75.9915H99.2178V103.421H137.502V75.9915Z" fill="url(#paint2_linear_1_3155)"/>
</g>
<path fill-rule="evenodd" clip-rule="evenodd" d="M142.543 16.678C143.925 15.589 145.689 15 147.5 15C149.311 15 151.075 15.589 152.457 16.678C153.816 17.7482 154.753 19.1459 154.991 20.863L155.148 22H154H152H151.938V25.7358C151.975 26.2893 151.887 26.842 151.681 27.3593C151.47 27.8891 151.143 28.366 150.726 28.7637C150.31 29.1611 149.813 29.4718 149.27 29.6823C148.726 29.8927 148.144 30 147.557 30C146.971 30 146.388 29.8927 145.845 29.6823C145.301 29.4718 144.805 29.1611 144.388 28.7637C143.972 28.366 143.644 27.8891 143.434 27.3593C143.228 26.842 143.139 26.2893 143.176 25.7358V22H141H139.852L140.009 20.863C140.247 19.146 141.184 17.7483 142.543 16.678ZM152.672 20H152H151H150.938H149.938H148H147V22H148H149.938V25.7717V25.8107L149.941 25.8497C149.961 26.1083 149.922 26.3699 149.823 26.62C149.723 26.8707 149.563 27.1093 149.345 27.3172C149.127 27.5254 148.857 27.6975 148.547 27.8172C148.238 27.9369 147.901 28 147.557 28C147.214 28 146.876 27.9369 146.567 27.8172C146.258 27.6975 145.987 27.5254 145.769 27.3172C145.552 27.1093 145.392 26.8707 145.292 26.62C145.192 26.3699 145.153 26.1083 145.173 25.8497L145.176 25.8107V25.7717V21V20H144.176H142.328C142.631 19.3561 143.116 18.7723 143.78 18.2492C144.792 17.4521 146.114 17 147.5 17C148.886 17 150.208 17.4521 151.22 18.2492C151.884 18.7723 152.369 19.3561 152.672 20ZM140.173 37.1664C140.924 36.4191 141.94 36 143 36H152C153.06 36 154.076 36.4191 154.827 37.1664C155.577 37.9137 156 38.9283 156 39.9872V43H153.185L153.209 43.4239C153.263 44.3736 153.342 45.7444 153.443 47.4283C153.645 50.7963 153.936 55.4156 154.292 60.4217C154.524 63.7125 156.077 68.8047 157.704 73.4735C158.48 75.702 159.261 77.8015 159.901 79.52L159.974 79.7163C160.613 81.4361 161.127 82.8199 161.301 83.4759L161.302 83.4774C163.208 90.7161 163.822 98.8372 163.964 105.119C164.036 108.266 163.989 110.964 163.924 112.877C163.892 113.834 163.855 114.595 163.826 115.118C163.805 115.496 163.78 115.873 163.752 116.251L161.467 119H133.533L131.248 116.251C131.22 115.873 131.195 115.496 131.174 115.118C131.145 114.595 131.108 113.834 131.076 112.877C131.011 110.964 130.964 108.266 131.036 105.119C131.178 98.8405 131.791 90.7246 133.695 83.4888C133.862 82.7926 134.374 81.3934 135.008 79.6836C135.1 79.4363 135.195 79.1808 135.292 78.918L135.297 78.9053L135.297 78.9046L135.297 78.9043L135.297 78.9039L135.298 78.9035C135.894 77.2989 136.591 75.4208 137.287 73.4411C138.924 68.7809 140.492 63.712 140.724 60.4233C141.174 53.9521 141.575 47.4774 141.923 41H142.112H153.077H154V39.9872C154 39.4616 153.79 38.9566 153.416 38.5836C153.041 38.2104 152.532 38 152 38H143C142.468 38 141.959 38.2104 141.584 38.5836C141.21 38.9566 141 39.4616 141 39.9872V40.9872H139V39.9872C139 38.9283 139.423 37.9137 140.173 37.1664ZM143.818 43H151.182L151.212 43.5365C151.266 44.4883 151.345 45.8616 151.446 47.5481C151.649 50.921 151.94 55.5477 152.297 60.5629C152.55 64.1608 154.201 69.4981 155.815 74.1315C156.599 76.3801 157.386 78.4967 158.025 80.213L158.099 80.4135C158.763 82.1971 159.226 83.4521 159.368 83.9873C159.882 85.9391 160.3 87.9623 160.639 90H140V110H160.758V108H142V92H160.946C161.601 96.6312 161.876 101.241 161.965 105.164C162.035 108.267 161.989 110.927 161.925 112.81C161.893 113.751 161.857 114.497 161.829 115.007C161.819 115.193 161.809 115.348 161.802 115.469L160.529 117H134.471L133.198 115.469C133.191 115.348 133.181 115.193 133.171 115.007C133.143 114.497 133.107 113.751 133.075 112.81C133.011 110.927 132.965 108.267 133.035 105.164C133.176 98.947 133.784 91.005 135.632 83.9867L135.636 83.9746L135.639 83.9624C135.766 83.4233 136.219 82.1701 136.883 80.3788C136.976 80.129 137.072 79.8702 137.171 79.6034C137.767 77.9991 138.472 76.1024 139.174 74.104C140.797 69.4825 142.466 64.1629 142.72 60.5629L142.72 60.5618C143.068 55.5469 143.355 50.9203 143.556 47.5475C143.656 45.8611 143.734 44.4879 143.788 43.5362L143.818 43Z" fill="#FF0000"/>
<path fill-rule="evenodd" clip-rule="evenodd" d="M80 78.4501C80 77.9639 80.1628 77.7098 80.3598 77.5382C80.5948 77.3337 80.9625 77.1799 81.4363 77.0901C81.8993 77.0023 82.3808 76.991 82.7595 77.0051C82.9457 77.0121 83.0997 77.0249 83.2049 77.0357C83.3038 77.0458 83.4018 77.0606 83.5 77.0754C83.5983 77.0606 83.6963 77.0458 83.7952 77.0357C83.9004 77.0249 84.0544 77.0121 84.2406 77.0051C84.6193 76.991 85.1007 77.0023 85.5637 77.0901C86.0376 77.1799 86.4053 77.3337 86.6402 77.5382C86.8372 77.7098 87 77.9639 87 78.4501C87 80.6701 86.0052 82.5997 84.9485 84.016C84.4249 84.7178 83.9002 85.2742 83.508 85.6536L83.5 85.6613L83.4921 85.6536C83.0998 85.2742 82.5752 84.7178 82.0515 84.016C80.9948 82.5997 80 80.6701 80 78.4501ZM83.4085 75.0461C83.4422 75.0495 83.4728 75.0529 83.5 75.056C83.5273 75.0529 83.5579 75.0495 83.5916 75.0461C83.7326 75.0317 83.93 75.0154 84.1658 75.0065C84.6308 74.9891 85.2743 74.9996 85.9363 75.1251C86.5875 75.2486 87.3448 75.4998 87.9536 76.03C88.6003 76.5931 89 77.4037 89 78.4501C89 81.2672 87.7448 83.6126 86.5515 85.212C86.3141 85.5301 86.0769 85.8219 85.849 86.0854C89.1762 86.3285 92.4483 87.0887 95.5414 88.3423C99.3625 89.8909 102.836 92.1624 105.763 95.0279C108.69 97.8934 111.013 101.297 112.598 105.044C114.198 108.825 115 112.898 115 117H128V119L115 119H113H54H52L37 119V117H52C52 108.768 55.3476 100.797 61.2312 95.0336C66.5838 89.7906 73.6608 86.6324 81.1511 86.0854C80.9231 85.8219 80.6859 85.5301 80.4485 85.212C79.2552 83.6126 78 81.2672 78 78.4501C78 77.4037 78.3997 76.5931 79.0464 76.0299C79.6553 75.4998 80.4126 75.2486 81.0637 75.1251C81.7257 74.9996 82.3693 74.9891 82.8343 75.0065C83.07 75.0154 83.2675 75.0317 83.4085 75.0461ZM83.4926 88C86.7801 87.9983 90.0246 88.5307 93.1392 89.5827C93.6956 89.7709 94.2458 89.9752 94.7902 90.1958C98.3716 91.6473 101.625 93.7752 104.364 96.457C107.103 99.1388 109.275 102.322 110.756 105.824C112.252 109.359 113 113.165 113 117H54C54 109.301 57.1284 101.852 62.6307 96.4623C68.16 91.0463 75.6642 88 83.4926 88ZM70.3684 97.9251C74.1161 95.3699 78.5094 94.006 83.0013 94L84.0013 93.9987L83.9987 91.9987L82.9987 92C78.102 92.0065 73.3177 93.4936 69.2417 96.2727C65.166 99.0516 61.9797 102.999 60.0754 107.619L59.6944 108.544L61.5435 109.306L61.9246 108.381C63.6824 104.116 66.6203 100.481 70.3684 97.9251Z" fill="white"/>
<path d="M174 78C174 78.5523 173.552 79 173 79C172.448 79 172 78.5523 172 78C172 77.4477 172.448 77 173 77C173.552 77 174 77.4477 174 78Z" stroke="white" stroke-width="2"/>
<mask id="path-5-inside-1_1_3155" fill="white">
<path d="M179 84C179.552 84 180 83.5523 180 83C180 82.4477 179.552 82 179 82C178.448 82 178 82.4477 178 83C178 83.5523 178.448 84 179 84Z"/>
</mask>
<path d="M178 83C178 82.4477 178.448 82 179 82V86C180.657 86 182 84.6569 182 83H178ZM179 82C179.552 82 180 82.4477 180 83H176C176 84.6569 177.343 86 179 86V82ZM180 83C180 83.5523 179.552 84 179 84V80C177.343 80 176 81.3431 176 83H180ZM179 84C178.448 84 178 83.5523 178 83H182C182 81.3431 180.657 80 179 80V84Z" fill="white" mask="url(#path-5-inside-1_1_3155)"/>
<path fill-rule="evenodd" clip-rule="evenodd" d="M166.024 52C165.726 54.1524 165.502 56.3121 165.339 58.4791C165.083 61.8667 164.878 66.4452 165.085 71.1886C165.291 75.9204 165.91 80.8758 167.331 84.9896C168.745 89.0825 171.026 92.5428 174.694 93.9349C174.792 93.9722 174.895 93.9937 175 93.9988V94.8453V117L168 117V119H184V117L177 117V94.8453V93.9988C177.105 93.9937 177.208 93.9722 177.306 93.9349C180.974 92.5428 183.255 89.0825 184.669 84.9896C186.09 80.8758 186.709 75.9204 186.915 71.1886C187.122 66.4452 186.917 61.8667 186.661 58.4791C186.498 56.3121 186.274 54.1524 185.976 52H166.024ZM167.776 54H184.224C184.334 54.9275 184.51 56.5527 184.667 58.6296C184.899 61.704 185.087 65.7569 184.958 70H167.042C166.913 65.7569 167.101 61.704 167.333 58.6296C167.49 56.5527 167.666 54.9275 167.776 54ZM167.127 72C167.367 76.3571 167.977 80.7345 169.221 84.3366C170.532 88.1321 172.477 90.8754 175.238 92H176.762C179.523 90.8754 181.468 88.1321 182.779 84.3366C184.023 80.7345 184.633 76.3571 184.873 72H167.127Z" fill="white"/>
<path fill-rule="evenodd" clip-rule="evenodd" d="M86.1482 4.22589L86.2662 3.23288L84.2802 2.99683L84.1622 3.98984L83.9201 6.02643L81.8889 5.78467L80.8959 5.66649L80.6595 7.65247L81.6525 7.77066L83.6841 8.01245L83.4433 10.0384L83.3252 11.0314L85.3113 11.2675L85.4293 10.2745L85.6701 8.24882L87.7026 8.49072L88.6956 8.60891L88.9319 6.62293L87.9389 6.50474L85.9061 6.2628L86.1482 4.22589Z" fill="white"/>
<path fill-rule="evenodd" clip-rule="evenodd" d="M175.625 58.7809L176.406 58.1562L175.156 56.5945L174.375 57.2192L172.681 58.5747L171.8 57.4L171.2 56.6L169.6 57.8L170.2 58.6L171.118 59.8247L169.375 61.2192L168.594 61.8439L169.844 63.4056L170.625 62.7809L172.319 61.4254L173.2 62.6L173.8 63.4L175.4 62.2L174.8 61.4L173.882 60.1754L175.625 58.7809Z" fill="white"/>
<path fill-rule="evenodd" clip-rule="evenodd" d="M103.858 32.4855L103.343 31.6281L101.628 32.657L102.143 33.5145L103.128 35.157L101.486 36.1425L100.628 36.657L101.657 38.372L102.515 37.8575L104.157 36.872L105.143 38.5145L105.657 39.372L107.372 38.343L106.858 37.4855L105.872 35.843L107.515 34.8575L108.372 34.343L107.343 32.6281L106.486 33.1425L104.843 34.1281L103.858 32.4855Z" fill="white"/>
<path fill-rule="evenodd" clip-rule="evenodd" d="M82 40V39H80V40C80 42.2208 79.3636 43.2806 78.6482 44.4719L78.6427 44.4811C77.8603 45.784 77 47.2224 77 49.9918C77 52.7608 77.86 54.203 78.642 55.5095L78.6472 55.5182C79.3631 56.7143 80 57.7784 80 60V61H82V60C82 57.2311 81.14 55.7888 80.358 54.4823L80.3528 54.4736C79.6369 53.2775 79 52.2134 79 49.9918C79 47.771 79.6364 46.7112 80.3518 45.5199L80.3573 45.5107C81.1397 44.2078 82 42.7694 82 40ZM85 50V49H83V50C83 52.6653 83.8709 54.052 84.6543 55.2934L84.6602 55.3027C85.3752 56.4357 86 57.4258 86 59.5078C86 61.5913 85.3742 62.5813 84.659 63.7128L84.6547 63.7196C83.8717 64.9583 83 66.3415 83 69V70H85V69C85 66.9165 85.6258 65.9265 86.341 64.7949L86.3453 64.7882C87.1283 63.5495 88 62.1662 88 59.5078C88 56.8493 87.1282 55.4661 86.3457 54.226L86.3429 54.2217C85.6275 53.0879 85 52.0936 85 50Z" fill="#FF0000"/>
<path fill-rule="evenodd" clip-rule="evenodd" d="M121.965 56.2632L122.228 55.2985L120.298 54.7722L120.035 55.737L118.798 60.2722L114.263 59.0353L113.298 58.7722L112.772 60.7017L113.737 60.9649L118.272 62.2017L117.035 66.737L116.772 67.7017L118.702 68.228L118.965 67.2632L120.202 62.728L124.737 63.9649L125.702 64.228L126.228 62.2985L125.263 62.0353L120.728 60.7985L121.965 56.2632Z" fill="white"/>
<path fill-rule="evenodd" clip-rule="evenodd" d="M171.707 25.293L171 24.5859L169.586 26.0002L170.293 26.7073L172.086 28.5002L170.293 30.293L169.586 31.0002L171 32.4144L171.707 31.7073L173.5 29.9144L175.293 31.7073L176 32.4144L177.414 31.0002L176.707 30.293L174.914 28.5002L176.707 26.7073L177.414 26.0002L176 24.5859L175.293 25.293L173.5 27.0859L171.707 25.293Z" fill="white"/>
<path fill-rule="evenodd" clip-rule="evenodd" d="M200 61V60H198V61V62H197H196V64H197H198V65V66H200V65V64H201H202V62H201H200V61Z" fill="white"/>
<path fill-rule="evenodd" clip-rule="evenodd" d="M192 103H197V105H192V103Z" fill="white"/>
<defs>
<filter id="filter0_f_1_3155" x="34.4646" y="4.51245" width="207.748" height="151.336" filterUnits="userSpaceOnUse" color-interpolation-filters="sRGB">
<feFlood flood-opacity="0" result="BackgroundImageFix"/>
<feBlend mode="normal" in="SourceGraphic" in2="BackgroundImageFix" result="shape"/>
<feGaussianBlur stdDeviation="16" result="effect1_foregroundBlur_1_3155"/>
</filter>
<linearGradient id="paint0_linear_1_3155" x1="66.4646" y1="123.848" x2="143.976" y2="-3.73016" gradientUnits="userSpaceOnUse">
<stop stop-color="#FF2E00"/>
<stop offset="0.989583" stop-color="#0500FF"/>
</linearGradient>
<linearGradient id="paint1_linear_1_3155" x1="66.4646" y1="123.848" x2="143.976" y2="-3.73016" gradientUnits="userSpaceOnUse">
<stop stop-color="#FF2E00"/>
<stop offset="0.989583" stop-color="#0500FF"/>
</linearGradient>
<linearGradient id="paint2_linear_1_3155" x1="66.4646" y1="123.848" x2="143.976" y2="-3.73016" gradientUnits="userSpaceOnUse">
<stop stop-color="#FF2E00"/>
<stop offset="0.989583" stop-color="#0500FF"/>
</linearGradient>
</defs>
</svg>
