<svg width="240" height="164" viewBox="0 0 240 164" fill="none" xmlns="http://www.w3.org/2000/svg">
<g filter="url(#filter0_f_1_3202)">
<path d="M131.171 58.9369C131.171 61.3408 128.185 63.2794 124.535 63.2794C120.929 63.2794 117.921 61.2854 117.932 58.8482V36.4942C117.932 34.1013 120.918 32.1516 124.568 32.1516C125.075 32.1523 125.582 32.1931 126.083 32.2735C128.959 32.7166 131.171 34.4448 131.171 36.4942V58.9369Z" fill="url(#paint0_linear_1_3202)"/>
<path d="M175.114 39.9846C177.26 38.899 180.323 40.6604 181.982 43.9173C183.63 47.1742 183.232 53.7081 181.098 54.7605L167.394 61.7064C165.259 62.792 162.184 61.0306 160.536 57.7737C158.888 54.5168 159.287 48.0051 161.421 46.8973L174.594 40.2505L175.114 39.9846Z" fill="url(#paint1_linear_1_3202)"/>
<path d="M72.1969 54.7937L85.9008 61.7396C88.0354 62.8474 91.1102 61.0638 92.7582 57.8069C94.4062 54.55 94.008 46.0161 91.8734 44.9305L78.7004 38.2837L78.1806 38.0178C76.0349 36.91 72.9712 38.6936 71.3121 41.9505C69.653 45.2074 70.0512 53.708 72.1969 54.7937Z" fill="url(#paint2_linear_1_3202)"/>
<path d="M173.497 101.953L173.674 101.832C179.119 98.1285 182.528 92.4412 182.528 87.9553C182.574 86.9419 182.375 85.9322 181.948 85.0114C181.52 84.0907 180.876 83.2858 180.071 82.6647L176.208 90.8541C175.73 91.8652 175.048 92.7675 174.204 93.5051C173.361 94.2426 172.374 94.7996 171.305 95.1416V89.3992C172.215 88.1715 172.697 86.6813 172.678 85.1557C172.678 81.7499 170.464 78.9834 167.675 78.9834C166.921 79.0046 166.183 79.2083 165.526 79.577C164.868 79.9457 164.31 80.4683 163.901 81.0996H154.228V108.39H99.8633V81.0996H78.7019V108.39H75.1049V122.542H101.889V128.714H152.18V122.542H167.365C166.939 125.64 165.865 128.614 164.211 131.272H169.225C169.225 131.272 177.537 121.815 175.29 112.876L180.093 118.012C180.801 118.774 181.305 119.702 181.556 120.71C181.808 121.718 181.799 122.773 181.532 123.777L179.507 131.272H184.078L187.597 122.112C187.868 121.132 187.891 120.101 187.663 119.11C187.435 118.119 186.964 117.201 186.291 116.436L173.497 101.953Z" fill="url(#paint3_linear_1_3202)"/>
</g>
<path d="M98.4955 21.125L96.5095 20.8889L96.1494 23.9185L93.1252 23.5586L92.8888 25.5446L95.9133 25.9045L95.5545 28.9235L97.5405 29.1596L97.8993 26.1409L100.925 26.501L101.161 24.515L98.1354 24.1549L98.4955 21.125Z" fill="white"/>
<path d="M49.6454 82.9966L48.9034 84.8539L50.7286 85.5831L50.0004 87.4049L51.8575 88.1473L52.5858 86.3251L54.4047 87.0518L55.1467 85.1946L53.3281 84.468L54.0567 82.6454L52.1995 81.9031L51.4709 83.726L49.6454 82.9966Z" fill="white"/>
<path d="M205.406 67.1562L204.156 65.5945L201.681 67.5747L200.2 65.6L198.6 66.8L200.118 68.8247L197.594 70.8439L198.844 72.4056L201.319 70.4254L202.8 72.4L204.4 71.2L202.882 69.1754L205.406 67.1562Z" fill="white"/>
<path fill-rule="evenodd" clip-rule="evenodd" d="M166 57H75V119H87.6645V117H77V59H164V117H154.111V119H166V57ZM132.769 89.1539L130.923 88.3846L129.385 92.077L131.231 92.8462L136 94.8334V108V109H138V108V95.6667L143.231 97.8462L145.077 98.6154L146.615 94.9231L144.769 94.1539L132.769 89.1539ZM138 116V138H136V116H138Z" fill="#FF0000"/>
<path fill-rule="evenodd" clip-rule="evenodd" d="M74 41V32H80V41H161V32H167V41H187V59H177V126H144.321V124H175V59H67V124H92.1479V126H65V59H54V41H74ZM78 34V41H76V34H78ZM165 41H163V34H165V41ZM56 57V43H185V57H56ZM117.5 72C112.066 72 108 77.3565 108 83.5C108 89.6435 112.066 95 117.5 95C122.934 95 127 89.6435 127 83.5C127 77.3565 122.934 72 117.5 72ZM110 83.5C110 78.0455 113.545 74 117.5 74C121.455 74 125 78.0455 125 83.5C125 88.9545 121.455 93 117.5 93C113.545 93 110 88.9545 110 83.5ZM123.112 99C124.876 98.9985 126.621 99.3645 128.24 100.075C129.86 100.786 131.318 101.826 132.529 103.13L135.413 106.241L133.947 107.601L131.062 104.49C130.037 103.385 128.803 102.506 127.437 101.907C126.07 101.307 124.599 100.999 123.114 101H112.09C110.27 101.001 108.478 101.467 106.876 102.356C105.275 103.245 103.914 104.53 102.919 106.096L102.918 106.098L98.1027 113.756L98.1011 113.759C97.2998 115.025 96.9179 116.524 97.0148 118.033C97.1116 119.542 97.6816 120.976 98.6366 122.123L108.119 133.477C108.797 132.572 109.212 131.479 109.301 130.323C109.419 128.806 108.965 127.303 108.038 126.121L108.037 126.12L104.378 121.477C103.727 120.653 103.348 119.643 103.291 118.591C103.233 117.539 103.5 116.494 104.055 115.602L108.031 109.259L109.726 110.322L105.753 116.659L105.752 116.66C105.416 117.201 105.253 117.838 105.288 118.482C105.323 119.126 105.555 119.741 105.948 120.239L109.61 124.885C110.85 126.465 111.451 128.465 111.295 130.477C111.14 132.49 110.238 134.37 108.769 135.733C108.568 135.92 108.299 136.015 108.025 135.998C107.752 135.981 107.497 135.852 107.321 135.641L97.1 123.403C95.8712 121.927 95.1426 120.089 95.0189 118.161C94.8952 116.234 95.3821 114.316 96.4103 112.691L96.4111 112.689L101.23 105.026C102.402 103.18 104.009 101.661 105.905 100.608C107.802 99.5543 109.928 99.0012 112.089 99L123.112 99ZM125.705 109.29C125.418 109.006 124.988 108.922 124.616 109.077C124.243 109.232 124 109.596 124 110V138H126V112.402L133.005 119.356L134.414 117.937L125.705 109.29ZM137.16 117.358C134.411 115.544 132.951 112.067 134.653 109.486C136.356 106.905 140.127 106.878 142.877 108.692C145.626 110.505 147.086 113.983 145.384 116.564C143.681 119.145 139.91 119.172 137.16 117.358ZM136.323 110.587C135.476 111.87 136.007 114.201 138.262 115.688C140.516 117.176 142.868 116.746 143.714 115.463C144.561 114.18 144.03 111.849 141.775 110.361C139.521 108.874 137.169 109.304 136.323 110.587Z" fill="white"/>
<defs>
<filter id="filter0_f_1_3202" x="38.2874" y="0.151611" width="181.531" height="163.12" filterUnits="userSpaceOnUse" color-interpolation-filters="sRGB">
<feFlood flood-opacity="0" result="BackgroundImageFix"/>
<feBlend mode="normal" in="SourceGraphic" in2="BackgroundImageFix" result="shape"/>
<feGaussianBlur stdDeviation="16" result="effect1_foregroundBlur_1_3202"/>
</filter>
<linearGradient id="paint0_linear_1_3202" x1="70.2874" y1="131.272" x2="167.986" y2="15.4257" gradientUnits="userSpaceOnUse">
<stop stop-color="#FF2E00"/>
<stop offset="0.989583" stop-color="#0500FF"/>
</linearGradient>
<linearGradient id="paint1_linear_1_3202" x1="70.2874" y1="131.272" x2="167.986" y2="15.4257" gradientUnits="userSpaceOnUse">
<stop stop-color="#FF2E00"/>
<stop offset="0.989583" stop-color="#0500FF"/>
</linearGradient>
<linearGradient id="paint2_linear_1_3202" x1="70.2874" y1="131.272" x2="167.986" y2="15.4257" gradientUnits="userSpaceOnUse">
<stop stop-color="#FF2E00"/>
<stop offset="0.989583" stop-color="#0500FF"/>
</linearGradient>
<linearGradient id="paint3_linear_1_3202" x1="70.2874" y1="131.272" x2="167.986" y2="15.4257" gradientUnits="userSpaceOnUse">
<stop stop-color="#FF2E00"/>
<stop offset="0.989583" stop-color="#0500FF"/>
</linearGradient>
</defs>
</svg>
