<svg width="240" height="161" viewBox="0 0 240 161" fill="none" xmlns="http://www.w3.org/2000/svg">
<g filter="url(#filter0_f_1_3097)">
<path d="M131.171 58.9369C131.171 61.3408 128.185 63.2794 124.535 63.2794C120.929 63.2794 117.921 61.2854 117.932 58.8482V36.4942C117.932 34.1013 120.918 32.1516 124.568 32.1516C125.075 32.1523 125.582 32.1931 126.083 32.2735C128.959 32.7166 131.171 34.4448 131.171 36.4942V58.9369Z" fill="url(#paint0_linear_1_3097)"/>
<path d="M175.114 39.9846C177.26 38.899 180.323 40.6604 181.982 43.9173C183.63 47.1742 183.232 53.7081 181.098 54.7605L167.394 61.7064C165.259 62.792 162.184 61.0306 160.536 57.7737C158.888 54.5168 159.287 48.0051 161.421 46.8973L174.594 40.2505L175.114 39.9846Z" fill="url(#paint1_linear_1_3097)"/>
<path d="M72.1969 54.7937L85.9008 61.7396C88.0354 62.8474 91.1102 61.0638 92.7582 57.8069C94.4062 54.55 94.008 46.0161 91.8734 44.9305L78.7004 38.2837L78.1806 38.0178C76.0349 36.91 72.9712 38.6936 71.3121 41.9505C69.653 45.2074 70.0512 53.708 72.1969 54.7937Z" fill="url(#paint2_linear_1_3097)"/>
<path d="M153.79 79.1431H174.948V106.572H178.543V120.796H151.777V127H101.518V120.796H74.752V106.572H78.3466V79.1431H99.5051V106.572H153.79V79.1431Z" fill="url(#paint3_linear_1_3097)"/>
</g>
<path d="M105.507 9V7H122.859V9H117.507V14.2776C118.486 14.5027 119.378 14.8586 120.13 15.3222C121.471 16.1487 122.507 17.4217 122.507 19V20H122.505L122.584 34.9947C122.587 35.547 122.142 35.9971 121.589 36C121.037 36.0029 120.587 35.5575 120.584 35.0052L120.505 19.8998L120.507 19.8998V19C120.507 18.3742 120.091 17.6472 119.081 17.0248C118.637 16.7515 118.106 16.5182 117.507 16.3434V21.8453H115.507V16.0129C115.343 16.0044 115.176 16 115.007 16C113.363 16 111.926 16.4123 110.933 17.0248C109.923 17.6472 109.507 18.3742 109.507 19V35C109.507 35.5523 109.059 36 108.507 36C107.954 36 107.507 35.5523 107.507 35V19C107.507 17.4217 108.542 16.1487 109.883 15.3222C111.24 14.4856 113.054 14 115.007 14C115.175 14 115.342 14.0036 115.507 14.0107V9H113.507V13.4342H111.507V9H105.507Z" fill="white"/>
<path fill-rule="evenodd" clip-rule="evenodd" d="M115.007 30C113.034 30 111.205 30.5519 109.841 31.4958C108.482 32.4371 107.507 33.8364 107.507 35.5C107.507 37.1636 108.482 38.5629 109.841 39.5042C111.205 40.4481 113.034 41 115.007 41C116.979 41 118.809 40.4481 120.172 39.5042C121.532 38.5629 122.507 37.1636 122.507 35.5C122.507 33.8364 121.532 32.4371 120.172 31.4958C118.809 30.5519 116.979 30 115.007 30ZM109.507 35.5C109.507 34.6783 109.987 33.8276 110.98 33.1402C111.969 32.4555 113.389 32 115.007 32C116.624 32 118.045 32.4555 119.034 33.1402C120.027 33.8276 120.507 34.6783 120.507 35.5C120.507 36.3217 120.027 37.1724 119.034 37.8598C118.045 38.5445 116.624 39 115.007 39C113.389 39 111.969 38.5445 110.98 37.8598C109.987 37.1724 109.507 36.3217 109.507 35.5Z" fill="#FF0000"/>
<path d="M124.249 38.9665L127.734 56.0587L125.775 56.4583L122.289 39.3661L124.249 38.9665Z" fill="#FF0000"/>
<path d="M107.662 39.3658L105.78 48.6038L103.821 48.2047L105.702 38.9667L107.662 39.3658Z" fill="#FF0000"/>
<path fill-rule="evenodd" clip-rule="evenodd" d="M60.3206 28.9436C58.8854 28.2784 57.2757 28.5771 55.8986 29.3696C54.4649 30.1947 53.1586 31.611 52.2546 33.3856C51.3483 35.1648 50.9851 37.0584 51.1718 38.7046C51.3572 40.3396 52.1132 41.8627 53.5772 42.6072C53.6202 42.6291 53.6641 42.6476 53.7084 42.6627L67.2817 49.5534C67.7741 49.8034 68.376 49.6069 68.626 49.1144C68.876 48.6219 68.6795 48.0201 68.187 47.77L54.4832 40.8131C54.4497 40.7961 54.4157 40.7812 54.3814 40.7682C53.7609 40.4012 53.29 39.6341 53.1591 38.4792C53.0223 37.2728 53.284 35.771 54.0367 34.2934C54.7918 32.811 55.8469 31.707 56.8962 31.103C57.9532 30.4947 58.8826 30.4479 59.5554 30.7953C59.6 30.8184 59.6456 30.8377 59.6917 30.8535L73.254 37.7442C73.7464 37.9943 74.3484 37.798 74.5985 37.3056C74.8487 36.8132 74.6523 36.2113 74.16 35.9611L60.4672 29.0041C60.4192 28.9798 60.3702 28.9597 60.3206 28.9436Z" fill="white"/>
<path fill-rule="evenodd" clip-rule="evenodd" d="M66.8419 45.4561C66.9785 46.6715 67.4922 47.4559 68.1655 47.7979C68.8387 48.1398 69.7741 48.0915 70.8338 47.4837C71.8847 46.8809 72.9396 45.7806 73.6903 44.2979C74.441 42.8152 74.704 41.3127 74.5685 40.1073C74.4319 38.8919 73.9182 38.1075 73.2449 37.7655C72.5716 37.4236 71.6362 37.4719 70.5765 38.0797C69.5256 38.6825 68.4707 39.7828 67.72 41.2655C66.9693 42.7482 66.7064 44.2507 66.8419 45.4561ZM64.8554 45.6783C64.6705 44.0326 65.0354 42.1402 65.9369 40.3598C66.8383 38.5794 68.1469 37.1663 69.5818 36.3433C71.0079 35.5254 72.6805 35.2357 74.1483 35.9812C75.6161 36.7267 76.3711 38.2494 76.5549 39.8851C76.7399 41.5308 76.3749 43.4232 75.4735 45.2036C74.5721 46.984 73.2634 48.3971 71.8286 49.2201C70.4025 50.038 68.7298 50.3277 67.262 49.5822C65.7943 48.8367 65.0393 47.314 64.8554 45.6783ZM77.2779 36.7971L86.3621 39.3003L85.8308 41.2285L76.7466 38.7253L77.2779 36.7971ZM84.6903 60.8525L71.0463 50.015L69.8023 51.5811L83.4463 62.4186L84.6903 60.8525Z" fill="#FF0000"/>
<path fill-rule="evenodd" clip-rule="evenodd" d="M55.8939 25H54.8939V27H55.8939H58.8939V37.5432V38.5432H60.8939V37.5432V27H63.8939V29.4342V30.4342H65.8939V29.4342V27H71.2568H72.2568V25H71.2568H65.8939H63.8939H60.8939H58.8939H55.8939Z" fill="white"/>
<path d="M177.132 25H159.769V27H166.132V30.4342H168.132V27H171.132V29.2209L157.866 35.9611C157.374 36.2112 157.178 36.8132 157.428 37.3055C157.678 37.7979 158.28 37.9943 158.772 37.7441L171.132 31.4643V38.5432H173.132V30.5947C173.705 30.5248 174.386 30.6747 175.13 31.103C176.179 31.7069 177.234 32.8109 177.99 34.2933C178.742 35.7709 179.004 37.2727 178.867 38.4791C178.736 39.634 178.265 40.4011 177.645 40.7682C177.611 40.7811 177.577 40.796 177.543 40.813L163.839 47.77C163.347 48.02 163.15 48.6219 163.4 49.1143C163.65 49.6068 164.252 49.8033 164.745 49.5533L178.318 42.6627C178.362 42.6475 178.406 42.629 178.449 42.6072C179.913 41.8626 180.669 40.3395 180.854 38.7045C181.041 37.0584 180.678 35.1648 179.772 33.3855C178.868 31.611 177.561 30.1947 176.128 29.3696C175.194 28.8321 174.153 28.5218 173.132 28.5851V27H177.132V25Z" fill="white"/>
<path fill-rule="evenodd" clip-rule="evenodd" d="M163.861 47.7979C164.534 47.4559 165.048 46.6715 165.184 45.4561C165.32 44.2507 165.057 42.7482 164.306 41.2655C163.556 39.7828 162.501 38.6825 161.45 38.0797C160.39 37.4719 159.455 37.4236 158.781 37.7655C158.108 38.1075 157.594 38.8919 157.458 40.1073C157.322 41.3127 157.585 42.8152 158.336 44.2979C159.087 45.7806 160.142 46.8809 161.192 47.4837C162.252 48.0915 163.188 48.1398 163.861 47.7979ZM166.089 40.3598C166.991 42.1402 167.356 44.0326 167.171 45.6783C166.987 47.314 166.232 48.8367 164.764 49.5822C163.296 50.3277 161.624 50.038 160.198 49.2201C158.763 48.3971 157.454 46.984 156.553 45.2036C155.651 43.4232 155.286 41.5308 155.471 39.8851C155.655 38.2494 156.41 36.7267 157.878 35.9812C159.346 35.2357 161.018 35.5254 162.445 36.3433C163.879 37.1663 165.188 38.5794 166.089 40.3598ZM146.196 41.2285L155.28 38.7253L154.748 36.7971L145.664 39.3003L146.196 41.2285ZM148.58 62.4186L162.224 51.5811L160.98 50.015L147.336 60.8525L148.58 62.4186Z" fill="#FF0000"/>
<path d="M86.2662 7.23276L84.2802 6.9967L83.9201 10.0263L80.8959 9.66637L80.6595 11.6523L83.684 12.0123L83.3252 15.0313L85.3112 15.2674L85.67 12.2487L88.6956 12.6088L88.9319 10.6228L85.9061 10.2627L86.2662 7.23276Z" fill="white"/>
<path fill-rule="evenodd" clip-rule="evenodd" d="M135.625 75.7809L136.406 75.1562L135.156 73.5945L134.375 74.2192L132.681 75.5747L131.8 74.4L131.2 73.6L129.6 74.8L130.2 75.6L131.118 76.8247L129.375 78.2192L128.594 78.8439L129.844 80.4056L130.625 79.7809L132.319 78.4254L133.2 79.6L133.8 80.4L135.4 79.2L134.8 78.4L133.882 77.1754L135.625 75.7809Z" fill="white"/>
<path d="M138.343 15.6281L136.628 16.657L138.128 19.157L135.628 20.657L136.657 22.372L139.157 20.872L140.657 23.372L142.372 22.343L140.872 19.843L143.372 18.343L142.343 16.6281L139.843 18.1281L138.343 15.6281Z" fill="white"/>
<path fill-rule="evenodd" clip-rule="evenodd" d="M50 55.228H55.3734V57.228H50V55.228Z" fill="white"/>
<path fill-rule="evenodd" clip-rule="evenodd" d="M182.026 55.228H176.653V57.228H182.026V55.228Z" fill="white"/>
<path fill-rule="evenodd" clip-rule="evenodd" d="M51 64H79V101H152V64H180V101H187V117H148.896V115H185V103H47V115H83.104V117H45V101H51V64ZM178 101V66H154V101H178ZM77 66V101H53V66H77ZM86 113H99V107H133V113H146V122H86V113ZM88 115V120H144V115H88ZM131 113V109H101V113H131ZM58 89C58 85.134 61.134 82 65 82C68.866 82 72 85.134 72 89C72 92.866 68.866 96 65 96C61.134 96 58 92.866 58 89ZM65 80C60.0294 80 56 84.0294 56 89C56 93.9706 60.0294 98 65 98C69.9706 98 74 93.9706 74 89C74 84.0294 69.9706 80 65 80ZM65 88C64.4477 88 64 88.4477 64 89C64 89.5523 64.4477 90 65 90C65.5523 90 66 89.5523 66 89C66 88.4477 65.5523 88 65 88ZM62 89C62 87.3431 63.3431 86 65 86C65.4631 86 65.9018 86.105 66.2934 86.2924L67.7929 84.7929L69.2071 86.2071L67.7076 87.7066C67.895 88.0982 68 88.5369 68 89C68 90.6569 66.6569 92 65 92C63.3431 92 62 90.6569 62 89ZM65 71C63.8954 71 63 71.8954 63 73C63 74.1046 63.8954 75 65 75C66.1046 75 67 74.1046 67 73C67 71.8954 66.1046 71 65 71ZM61 73C61 70.7908 62.7909 69 65 69C67.2091 69 69 70.7909 69 73C69 75.2091 67.2092 77 65 77C62.7909 77 61 75.2091 61 73ZM166 82C162.134 82 159 85.134 159 89C159 92.866 162.134 96 166 96C169.866 96 173 92.866 173 89C173 85.134 169.866 82 166 82ZM157 89C157 84.0294 161.029 80 166 80C170.971 80 175 84.0294 175 89C175 93.9706 170.971 98 166 98C161.029 98 157 93.9706 157 89ZM165 89C165 88.4477 165.448 88 166 88C166.552 88 167 88.4477 167 89C167 89.5523 166.552 90 166 90C165.448 90 165 89.5523 165 89ZM166 86C164.343 86 163 87.3431 163 89C163 90.6569 164.343 92 166 92C167.657 92 169 90.6569 169 89C169 88.5369 168.895 88.0982 168.708 87.7066L170.207 86.2071L168.793 84.7929L167.293 86.2924C166.902 86.105 166.463 86 166 86ZM164 73C164 71.8954 164.895 71 166 71C167.105 71 168 71.8954 168 73C168 74.1046 167.105 75 166 75C164.895 75 164 74.1046 164 73ZM166 69C163.791 69 162 70.7908 162 73C162 75.2091 163.791 77 166 77C168.209 77 170 75.2091 170 73C170 70.7909 168.209 69 166 69Z" fill="white"/>
<defs>
<filter id="filter0_f_1_3097" x="38.2874" y="0.151611" width="176.712" height="158.848" filterUnits="userSpaceOnUse" color-interpolation-filters="sRGB">
<feFlood flood-opacity="0" result="BackgroundImageFix"/>
<feBlend mode="normal" in="SourceGraphic" in2="BackgroundImageFix" result="shape"/>
<feGaussianBlur stdDeviation="16" result="effect1_foregroundBlur_1_3097"/>
</filter>
<linearGradient id="paint0_linear_1_3097" x1="70.2874" y1="127" x2="163.741" y2="15.9456" gradientUnits="userSpaceOnUse">
<stop stop-color="#FF2E00"/>
<stop offset="0.989583" stop-color="#0500FF"/>
</linearGradient>
<linearGradient id="paint1_linear_1_3097" x1="70.2874" y1="127" x2="163.741" y2="15.9456" gradientUnits="userSpaceOnUse">
<stop stop-color="#FF2E00"/>
<stop offset="0.989583" stop-color="#0500FF"/>
</linearGradient>
<linearGradient id="paint2_linear_1_3097" x1="70.2874" y1="127" x2="163.741" y2="15.9456" gradientUnits="userSpaceOnUse">
<stop stop-color="#FF2E00"/>
<stop offset="0.989583" stop-color="#0500FF"/>
</linearGradient>
<linearGradient id="paint3_linear_1_3097" x1="70.2874" y1="127" x2="163.741" y2="15.9456" gradientUnits="userSpaceOnUse">
<stop stop-color="#FF2E00"/>
<stop offset="0.989583" stop-color="#0500FF"/>
</linearGradient>
</defs>
</svg>
