<svg width="240" height="172" viewBox="0 0 240 172" fill="none" xmlns="http://www.w3.org/2000/svg">
<g filter="url(#filter0_f_1_3212)">
<path d="M131.171 69.9369C131.171 72.3408 128.185 74.2794 124.535 74.2794C120.929 74.2794 117.921 72.2854 117.932 69.8482V47.4942C117.932 45.1013 120.918 43.1516 124.568 43.1516C125.075 43.1523 125.582 43.1931 126.083 43.2735C128.959 43.7166 131.171 45.4448 131.171 47.4942V69.9369Z" fill="url(#paint0_linear_1_3212)"/>
<path d="M72.1969 49.7937L101.901 56.7396C104.035 57.8474 91.1102 56.0638 92.7582 52.8069C94.4062 49.55 94.008 41.0161 91.8734 39.9305L78.7004 33.2837L78.1806 33.0178C76.0349 31.91 72.9712 33.6936 71.3121 36.9505C69.653 40.2074 70.0512 48.708 72.1969 49.7937Z" fill="url(#paint1_linear_1_3212)"/>
<path d="M153.79 58.1431L174.948 90.1431L167 98.5L162 109.572L170.5 123.796L151.777 131.796V138H117.518V131.796H90.752V117.572H94.3466V58.1431H155.505V85.5721H153.79V58.1431Z" fill="url(#paint2_linear_1_3212)"/>
</g>
<path fill-rule="evenodd" clip-rule="evenodd" d="M95 58C93.8954 58 93 58.8954 93 60V63.0651C95.8395 62.02 98.9613 61.7488 102 62.3602V60C102 58.8954 101.105 58 100 58H95ZM91 60V63.9548C87.6043 65.7425 84.8023 68.7287 83.3355 72.6929L83.3346 72.6954L72.0464 102.73L72.044 102.737C68.042 113.608 76.0454 125 87.4086 125C94.0998 125 100.27 120.808 102.768 114.292L102.773 114.279L102.778 114.266C102.809 114.176 102.843 114.088 102.878 114H103V113.716C103.926 111.694 105.842 110.238 108.168 109.72L108.18 109.717L108.193 109.714C108.688 109.59 109.046 109.587 109.675 109.587H131.237C131.921 109.587 132.363 109.598 132.645 109.693L132.715 109.716L132.788 109.729C134.962 110.114 136.962 111.745 138 113.967V114H138.015C138.061 114.099 138.105 114.199 138.147 114.3C140.652 120.982 146.83 125 153.504 125C164.869 125 172.861 113.611 169.029 102.749L169.026 102.74L169.022 102.73L157.732 72.6904L157.731 72.6872C156.211 68.6846 153.39 65.6936 150 63.9086V63.8158V60C150 57.7909 148.209 56 146 56H141C138.791 56 137 57.7909 137 60V62.8837C135.252 63.487 133.567 64.4056 132.019 65.6596L132.013 65.6645L132.007 65.6694C129.353 67.8877 126.284 69.054 122.926 69.054H118.142C114.81 69.054 111.729 67.7486 109.039 65.6508C107.467 64.4017 105.762 63.4911 104 62.8965V60C104 57.7909 102.209 56 100 56H95C92.7908 56 91 57.7909 91 60ZM139 62.3344C142.026 61.7095 145.149 61.9704 148 63.019V60C148 58.8954 147.105 58 146 58H141C139.895 58 139 58.8954 139 60V62.3344ZM122.926 71.054C126.779 71.054 130.294 69.7057 133.284 67.209C140.904 61.042 152.338 64.1223 155.861 73.3961L155.862 73.3973L167.147 103.424C170.52 113.006 163.46 123 153.504 123C147.638 123 142.216 119.475 140.014 113.584L140.009 113.569L140.002 113.554L140 113.548V113C140 106.033 135.184 100.211 129.072 100.001L129.055 100H129.038H111.962C105.796 100 101 106.067 101 113V113.31C100.964 113.402 100.929 113.495 100.896 113.589C98.6876 119.333 93.2576 123 87.4086 123C77.4473 123 70.3977 113.004 73.9197 103.431L73.9209 103.428L85.2086 73.3941L85.2104 73.3891C88.5788 64.2818 100.016 61.0338 107.798 67.2195L107.805 67.2251C110.759 69.5296 114.263 71.054 118.142 71.054H122.926ZM137.685 110.141C136.436 108.939 134.888 108.085 133.203 107.772C132.59 107.586 131.859 107.586 131.317 107.587L131.237 107.587H109.675H109.645C109.034 107.587 108.461 107.587 107.72 107.771C106.081 108.138 104.57 108.895 103.35 109.973C104.456 105.309 108.038 102 111.962 102H129.02C133.024 102.147 136.624 105.454 137.685 110.141Z" fill="white"/>
<path fill-rule="evenodd" clip-rule="evenodd" d="M171.794 56.3396L172.275 56.1927C174.995 55.3618 178.681 54.1537 181.715 53.1568C181.893 53.0986 182.068 53.0411 182.24 52.9844C183.546 52.5551 184.706 52.1739 185.585 51.8899C186.083 51.729 186.486 51.6009 186.771 51.5136C186.915 51.4697 187.022 51.4382 187.094 51.4185C187.112 51.4134 187.126 51.4098 187.136 51.4072C187.311 51.3814 187.489 51.3085 187.643 51.1768C187.824 51.0223 187.908 50.8423 187.946 50.729C188.014 50.526 188 50.3517 187.996 50.305C187.986 50.1773 187.954 50.0636 187.939 50.0097C187.901 49.8769 187.841 49.7144 187.775 49.5465C187.639 49.1997 187.431 48.7123 187.175 48.13C186.673 46.9895 185.962 45.4328 185.188 43.735L185.13 43.6077C183.527 40.0951 181.672 36.0218 180.739 33.6361L180.003 31.7524L170.669 47.1158L166.592 42.8772L155.289 54.2965L156.436 55.8997L165.34 51.5815L171.794 56.3396ZM187.155 51.4025C187.154 51.4028 187.152 51.4032 187.15 51.4038C187.169 51.4002 187.173 51.3984 187.155 51.4025ZM172.17 54.1325L165.555 49.2548L160.821 51.5505L166.571 45.7409L171.029 50.375L179.635 36.2113C180.653 38.6117 182.071 41.7214 183.31 44.4377L183.364 44.5548C184.142 46.2613 184.848 47.8078 185.344 48.9359C185.48 49.245 185.599 49.5188 185.698 49.7534C185.483 49.8216 185.239 49.8999 184.97 49.9868C184.086 50.2724 182.921 50.6553 181.616 51.0841C181.444 51.1409 181.268 51.1985 181.091 51.2568C178.229 52.1972 174.811 53.3173 172.17 54.1325Z" fill="#FF0000"/>
<path d="M138.343 26.6279L136.628 27.6569L138.128 30.1569L135.628 31.6569L136.657 33.3719L139.157 31.8719L140.657 34.3719L142.372 33.3429L140.872 30.8429L143.372 29.3429L142.343 27.6279L139.843 29.1279L138.343 26.6279Z" fill="white"/>
<path d="M39.986 79.5859L38.5858 81.0141L41.584 83.9534L38.5858 86.8927L39.986 88.3209L43.0124 85.3538L46.0388 88.3209L47.439 86.8927L44.4408 83.9534L47.439 81.0141L46.0388 79.5859L43.0124 82.553L39.986 79.5859Z" fill="white"/>
<path d="M117.203 52H115.203V54.2029H113V56.2029H115.203V58.4057H117.203V56.2029H119.406V54.2029H117.203V52Z" fill="white"/>
<path d="M182.573 98H180.573V99.5735H179V101.573H180.573V103.147H182.573V101.573H184.147V99.5735H182.573V98Z" fill="white"/>
<path fill-rule="evenodd" clip-rule="evenodd" d="M69.7947 40.7369C69.5003 42.7401 68.4832 45.5205 66.5859 49.0622L64.823 48.1177C66.6757 44.6594 67.5705 42.1161 67.8159 40.4461C67.9396 39.6047 67.8841 39.0769 67.7817 38.7868C67.698 38.5495 67.6146 38.5306 67.5695 38.5204L67.5668 38.5198C67.4471 38.4924 67.1451 38.4966 66.6099 38.7551C66.0928 39.0049 65.4567 39.4457 64.731 40.1107C63.2824 41.438 61.5788 43.5638 59.8638 46.5038C58.2324 49.3005 58.5471 51.021 59.4212 52.059C60.3989 53.2201 62.3884 53.9405 64.8988 54.0003C65.3553 54.0111 65.8209 53.9998 66.2907 53.9665C66.8543 52.4536 67.7771 50.9201 68.827 49.5385C70.0565 47.9207 71.5058 46.4514 72.8705 45.4081C73.5518 44.8872 74.2362 44.4539 74.8819 44.1651C75.5026 43.8873 76.2083 43.688 76.8805 43.7984C77.2362 43.8568 77.585 44.0032 77.8811 44.2665C78.1746 44.5275 78.3674 44.86 78.4832 45.2172C78.7047 45.9002 78.6701 46.7483 78.4805 47.6961C77.902 50.5889 75.7864 52.7036 73.2515 54.0544C71.5984 54.9353 69.7164 55.522 67.8359 55.8057C67.5001 57.6719 68.3685 59.1447 69.7549 59.7334C71.2895 60.3851 73.8704 60.1107 76.8058 57.2802C79.6588 54.529 80.9077 52.9794 81.5611 52.0233C81.8352 51.6223 82.0076 51.3222 82.1666 51.0455C82.1974 50.9918 82.2277 50.9391 82.2581 50.8867C82.4484 50.5589 82.6534 50.2268 82.9973 49.8829L84.4115 51.2971C84.2555 51.4532 84.1548 51.6032 83.9878 51.8908C83.9619 51.9354 83.9347 51.9827 83.9059 52.033C83.7454 52.3126 83.5337 52.6816 83.2123 53.1518C82.4532 54.2625 81.0998 55.9179 78.1941 58.7198C74.9153 61.8815 71.5053 62.6495 68.9732 61.5743C66.79 60.6473 65.5621 58.466 65.7943 55.9948C65.477 56.0055 65.1623 56.0071 64.8512 55.9997C62.1116 55.9345 59.4136 55.1549 57.8914 53.3472C56.2655 51.4165 56.2676 48.6994 58.1362 45.4961C59.9212 42.4362 61.7432 40.1357 63.3798 38.6361C64.1967 37.8876 64.9932 37.3149 65.7402 36.9541C66.4692 36.6021 67.263 36.3987 68.0126 36.5701C68.8374 36.7587 69.3952 37.3488 69.6677 38.1213C69.9233 38.8456 69.9409 39.7418 69.7947 40.7369ZM68.6131 53.6284C69.912 53.3413 71.1798 52.8921 72.311 52.2894C74.526 51.109 76.0979 49.4112 76.5194 47.3039C76.6842 46.4794 76.6454 46.0335 76.5807 45.8339C76.5711 45.8044 76.5624 45.7845 76.5559 45.7719C76.4547 45.7556 76.1827 45.7741 75.6987 45.9907C75.2384 46.1966 74.6889 46.5354 74.0852 46.997C72.8798 47.9185 71.5543 49.2553 70.4194 50.7486C69.703 51.6913 69.0804 52.673 68.6131 53.6284ZM76.5445 45.7532C76.5445 45.7532 76.545 45.7538 76.5459 45.755C76.5449 45.7539 76.5445 45.7533 76.5445 45.7532Z" fill="#FF0000"/>
<path d="M104 81V72H98V81H89V87H98V96H104V87H113V81H104Z" fill="#FF0000"/>
<path d="M128 83C130.209 83 132 81.2091 132 79C132 76.7909 130.209 75 128 75C125.791 75 124 76.7909 124 79C124 81.2091 125.791 83 128 83Z" fill="#FF0000"/>
<path d="M148 79C148 81.2091 146.209 83 144 83C141.791 83 140 81.2091 140 79C140 76.7909 141.791 75 144 75C146.209 75 148 76.7909 148 79Z" fill="#FF0000"/>
<path d="M152 94C154.209 94 156 92.2091 156 90C156 87.7909 154.209 86 152 86C149.791 86 148 87.7909 148 90C148 92.2091 149.791 94 152 94Z" fill="#FF0000"/>
<path d="M140 90C140 92.2091 138.209 94 136 94C133.791 94 132 92.2091 132 90C132 87.7909 133.791 86 136 86C138.209 86 140 87.7909 140 90Z" fill="#FF0000"/>
<defs>
<filter id="filter0_f_1_3212" x="38.2874" y="0.688721" width="168.661" height="169.311" filterUnits="userSpaceOnUse" color-interpolation-filters="sRGB">
<feFlood flood-opacity="0" result="BackgroundImageFix"/>
<feBlend mode="normal" in="SourceGraphic" in2="BackgroundImageFix" result="shape"/>
<feGaussianBlur stdDeviation="16" result="effect1_foregroundBlur_1_3212"/>
</filter>
<linearGradient id="paint0_linear_1_3212" x1="70.2874" y1="138" x2="175.597" y2="33.3412" gradientUnits="userSpaceOnUse">
<stop stop-color="#FF2E00"/>
<stop offset="0.989583" stop-color="#0500FF"/>
</linearGradient>
<linearGradient id="paint1_linear_1_3212" x1="70.2874" y1="138" x2="175.597" y2="33.3412" gradientUnits="userSpaceOnUse">
<stop stop-color="#FF2E00"/>
<stop offset="0.989583" stop-color="#0500FF"/>
</linearGradient>
<linearGradient id="paint2_linear_1_3212" x1="70.2874" y1="138" x2="175.597" y2="33.3412" gradientUnits="userSpaceOnUse">
<stop stop-color="#FF2E00"/>
<stop offset="0.989583" stop-color="#0500FF"/>
</linearGradient>
</defs>
</svg>
