<svg width="252" height="174" viewBox="0 0 252 174" fill="none" xmlns="http://www.w3.org/2000/svg">
<g filter="url(#filter0_f_1_3119)">
<path d="M129.171 75.9368C129.171 78.3407 126.185 40.2794 122.535 40.2794C118.929 40.2794 107.921 78.2853 107.932 75.8482V53.4942C107.932 51.1013 118.918 49.1516 122.568 49.1516C123.075 49.1523 123.582 49.193 124.083 49.2734C126.959 49.7165 129.171 51.4447 129.171 53.4942V75.9368Z" fill="url(#paint0_linear_1_3119)"/>
<path d="M182.076 33.0445C184.222 31.9589 187.285 33.7203 188.944 36.9772C190.592 40.2342 190.194 46.768 188.06 47.8204L174.356 54.7663C172.221 55.8519 169.146 54.0906 167.498 50.8336C165.85 47.5767 166.249 41.065 168.383 39.9572L181.556 33.3104L182.076 33.0445Z" fill="url(#paint1_linear_1_3119)"/>
<path d="M141.497 111.953L141.674 111.832C147.119 108.128 150.528 102.441 150.528 97.9552C150.574 96.9418 150.375 95.9321 149.948 95.0113C149.52 94.0906 148.876 93.2857 148.071 92.6646L144.208 100.854C143.73 101.865 143.048 102.767 142.204 103.505C141.361 104.243 140.374 104.8 139.305 105.141V99.3991C140.215 98.1714 140.697 96.6812 140.678 95.1556C140.678 91.7498 138.464 48.9834 135.675 48.9834C134.921 49.0045 134.183 49.2083 133.526 49.577C132.868 49.9457 100.31 50.4682 99.9011 51.0995H90.2279L82.2278 118.39H99.8633L94.5 120.319L89 114.291L78.7018 118.39H75.1048V132.542H101.889V138.714H152.18L144.18 132.542H167.365C166.939 135.64 165.865 138.614 164.211 141.271H169.225C169.225 141.271 177.536 131.815 175.29 122.876L180.093 128.012C180.801 128.774 181.305 129.702 181.556 130.71C181.808 131.718 181.799 132.773 181.532 133.777L179.507 141.271H184.077L187.597 132.112C187.868 131.132 187.891 130.101 187.663 129.11C187.435 128.119 186.964 127.2 186.291 126.436L141.497 111.953Z" fill="url(#paint2_linear_1_3119)"/>
<path d="M214.941 82.3929C214.426 81.4781 213.716 80.6864 212.861 80.0733C212.007 79.4603 211.028 79.0407 209.994 78.8438L205.035 77.907C204.053 77.7276 203.041 77.8112 202.102 78.1494L193.469 81.3017C192.706 81.5767 192.013 82.0155 191.44 82.5869C190.866 83.1583 190.425 83.8484 190.149 84.6083L188.744 88.4219L186.917 89.4029C186.268 89.7553 185.697 90.2337 185.237 90.8097C184.777 91.3857 184.437 92.0477 184.238 92.7565C184.039 93.4654 183.984 94.2068 184.077 94.937C184.171 95.6673 184.41 96.3714 184.781 97.008L188.522 95.1894C190.438 94.2633 192.008 92.7539 193.005 90.8798L195.517 86.1514L196.845 92.1363C197.183 93.6722 197.183 95.2626 196.845 96.7986L191.732 122.491C191.618 122.821 191.551 123.167 191.533 123.516C191.482 124.079 191.605 124.645 191.887 125.136C192.927 126.933 195.849 127.197 198.417 125.72C199.274 125.292 200.01 124.656 200.555 123.87C201.101 123.084 201.439 122.174 201.538 121.223V108.173L217.509 100.965V95.0682L211.167 98.022L205.035 84.2225L207.603 84.8067C208.593 85.0361 209.524 85.4706 210.334 86.0821C211.145 86.6936 211.817 87.4684 212.307 88.3558C212.694 89.0625 213.265 89.6525 213.961 90.0636C214.656 90.4747 215.449 90.6919 216.258 90.6924C216.936 90.6923 217.605 90.5416 218.217 90.2515L219.102 89.8217L214.941 82.3929Z" fill="url(#paint3_linear_1_3119)"/>
<path d="M74.0163 38.7182C76.162 37.6326 79.2258 39.394 80.8848 42.6509C82.5328 45.9079 82.1346 52.4417 80 53.4941L66.2961 60.44C64.1615 61.5256 61.0867 59.7643 59.4387 56.5073C57.7907 53.2504 58.1889 46.7387 60.3235 45.6309L73.4965 38.9841L74.0163 38.7182Z" fill="url(#paint4_linear_1_3119)"/>
</g>
<path fill-rule="evenodd" clip-rule="evenodd" d="M71 117H69V121H71H105H107V117H105H71ZM120 117H118V121H120H154H156V117H154H120Z" fill="#FF0000"/>
<path fill-rule="evenodd" clip-rule="evenodd" d="M54 127H172V129C172 133.971 167.971 138 163 138H63C58.0294 138 54 133.971 54 129V127ZM56 129C56 132.866 59.134 136 63 136H163C166.866 136 170 132.866 170 129H56Z" fill="white"/>
<path fill-rule="evenodd" clip-rule="evenodd" d="M136.953 70.4032C137.25 70.0036 137.796 69.8836 138.234 70.122L137.755 71.0001C138.234 70.122 138.234 70.1219 138.234 70.122L138.237 70.1236L138.243 70.127L138.264 70.1388C138.282 70.1488 138.308 70.1633 138.341 70.1818C138.407 70.2187 138.5 70.272 138.614 70.3392C138.843 70.4733 139.158 70.6642 139.506 70.8922C140.177 71.3323 141.06 71.9678 141.64 72.6351C142.595 73.7335 143.288 75.0302 143.667 76.43C144.047 77.8298 144.102 79.2961 143.83 80.7202C143.558 82.1443 142.966 83.489 142.097 84.6552L142.094 84.659L133.157 96.5409L133.153 96.5459C130.194 100.429 128.589 105.149 128.575 110.003L128.572 111.003L126.572 110.997L126.575 109.997C126.59 104.706 128.34 99.5634 131.561 95.3359C131.561 95.3352 131.562 95.3344 131.562 95.3337L140.493 83.4605C140.493 83.4598 140.494 83.4592 140.494 83.4586C141.183 82.534 141.651 81.47 141.866 80.3449C142.081 79.2192 142.037 78.0602 141.737 76.9533C141.437 75.8463 140.888 74.8189 140.13 73.9471C139.744 73.5022 139.061 72.9922 138.409 72.5648C138.274 72.4758 138.143 72.3928 138.022 72.3174L126.118 88.3183C125.382 89.3071 124.419 90.1097 123.311 90.6609C122.204 91.2119 120.981 91.4971 119.741 91.4939H105.245C105.245 91.4939 105.245 91.4939 105.245 91.4939C104.007 91.4939 102.785 91.2075 101.678 90.6569C100.571 90.1063 99.6097 89.3066 98.8713 88.3211L98.8689 88.3179L86.9395 72.2658C86.1572 72.7034 85.4565 73.2719 84.8696 73.9471C84.1119 74.8189 83.5633 75.8463 83.2632 76.9533C82.9631 78.0602 82.919 79.2192 83.1341 80.3449C83.349 81.47 83.8173 82.5341 84.5056 83.4587C84.5061 83.4593 84.5065 83.4599 84.507 83.4605L93.4414 95.3387C96.6262 99.5796 98.3477 104.719 98.3494 110L98.3497 111L96.3497 111L96.3494 110C96.3478 105.155 94.7688 100.437 91.8426 96.5403L82.9031 84.6553C82.0343 83.489 81.4416 82.1443 81.1696 80.7202C80.8975 79.296 80.9534 77.8298 81.3329 76.43C81.7123 75.0302 82.4055 73.7335 83.3601 72.6351C84.3147 71.5368 85.5063 70.6649 86.8464 70.0829C87.2726 69.8977 87.7702 70.0306 88.0474 70.4036L100.472 87.1218C100.472 87.1224 100.473 87.1229 100.473 87.1234C101.023 87.8568 101.74 88.4541 102.569 88.8662C103.398 89.2787 104.315 89.4939 105.245 89.4939H119.743L119.745 89.4939C120.675 89.4965 121.592 89.2825 122.421 88.8702C123.249 88.4581 123.966 87.8596 124.514 87.1246M124.514 87.1246L136.953 70.4032L124.514 87.1246Z" fill="white"/>
<path fill-rule="evenodd" clip-rule="evenodd" d="M113 56C107.688 56 103 61.5822 103 69C103 76.4178 107.688 82 113 82C118.312 82 123 76.4178 123 69C123 61.5822 118.312 56 113 56ZM101 69C101 60.9538 106.161 54 113 54C119.839 54 125 60.9538 125 69C125 77.0462 119.839 84 113 84C106.161 84 101 77.0462 101 69Z" fill="white"/>
<path fill-rule="evenodd" clip-rule="evenodd" d="M84.1252 39.8889L92.1612 40.8454L91.9248 42.8313L83.8888 41.8749L84.1252 39.8889Z" fill="white"/>
<path fill-rule="evenodd" clip-rule="evenodd" d="M208.625 66.7809L209.406 66.1562L208.156 64.5945L207.375 65.2192L205.681 66.5747L204.8 65.4L204.2 64.6L202.6 65.8L203.2 66.6L204.118 67.8247L202.375 69.2192L201.594 69.8439L202.844 71.4056L203.625 70.7809L205.319 69.4254L206.2 70.6L206.8 71.4L208.4 70.2L207.8 69.4L206.882 68.1754L208.625 66.7809Z" fill="white"/>
<path fill-rule="evenodd" clip-rule="evenodd" d="M138.857 26.4855L138.343 25.6281L136.628 26.657L137.142 27.5145L138.128 29.157L136.485 30.1425L135.628 30.657L136.657 32.372L137.514 31.8575L139.157 30.872L140.142 32.5145L140.657 33.372L142.372 32.343L141.857 31.4855L140.872 29.843L142.514 28.8575L143.372 28.343L142.343 26.6281L141.485 27.1425L139.843 28.1281L138.857 26.4855Z" fill="white"/>
<path fill-rule="evenodd" clip-rule="evenodd" d="M25.156 77.7737L24.1738 77.9618L24.55 79.9261L25.5321 79.738L27.4134 79.3778L27.7737 81.2591L27.9617 82.2412L29.926 81.8651L29.738 80.8829L29.3777 79.0017L31.259 78.6415L32.2412 78.4534L31.8651 76.4891L30.8829 76.6771L29.0016 77.0374L28.6414 75.156L28.4533 74.1739L26.489 74.55L26.6771 75.5322L27.0373 77.4135L25.156 77.7737Z" fill="white"/>
<path fill-rule="evenodd" clip-rule="evenodd" d="M195.307 88.473L194.694 87.0605L193.653 88.1944L183.287 99.4801L182.848 99.9585L183.106 100.554L185.004 104.93L185.609 106.326L185.613 106.322L189.787 115.897C189.277 115.886 188.76 115.973 188.268 116.136C187.1 116.522 185.977 117.352 185.124 118.498C184.272 119.643 183.801 120.955 183.769 122.181C183.737 123.403 184.151 124.636 185.189 125.403C186.227 126.169 187.531 126.206 188.696 125.821C189.864 125.434 190.988 124.604 191.84 123.459C192.693 122.313 193.164 121.001 193.195 119.775C193.213 119.086 193.089 118.392 192.791 117.782L192.43 116.954L187.103 104.735L196.048 95.2098L200.112 104.582C199.59 104.579 199.063 104.678 198.563 104.853C197.382 105.266 196.24 106.129 195.364 107.306C194.488 108.482 193.991 109.822 193.937 111.068C193.884 112.307 194.276 113.57 195.327 114.347C196.379 115.124 197.705 115.13 198.88 114.719C200.061 114.306 201.204 113.443 202.08 112.267C202.955 111.09 203.452 109.75 203.506 108.504C203.54 107.715 203.394 106.916 203.011 106.24L196.301 90.7666C196.3 90.7644 196.299 90.7621 196.298 90.7599L195.307 88.473ZM186.234 102.739L185.199 100.355L194.084 90.6812L195.181 93.2112L186.234 102.739ZM201.42 107.598L201.238 107.178C201.148 107.034 201.041 106.918 200.922 106.83C200.563 106.565 199.987 106.47 199.225 106.737C198.47 107.001 197.642 107.595 196.973 108.494C196.304 109.393 195.973 110.355 195.939 111.152C195.904 111.955 196.163 112.477 196.521 112.742C196.88 113.007 197.457 113.102 198.218 112.836C198.974 112.571 199.802 111.977 200.471 111.078C201.14 110.179 201.47 109.217 201.504 108.421C201.518 108.103 201.486 107.829 201.42 107.598ZM185.772 122.23C185.752 123.002 186.011 123.523 186.383 123.798C186.756 124.073 187.332 124.169 188.067 123.926C188.799 123.684 189.595 123.125 190.231 122.27C190.868 121.415 191.173 120.494 191.193 119.726C191.213 118.955 190.953 118.433 190.581 118.158C190.209 117.883 189.633 117.787 188.898 118.031C188.166 118.273 187.369 118.831 186.733 119.686C186.097 120.541 185.792 121.462 185.772 122.23Z" fill="#FF0000"/>
<path fill-rule="evenodd" clip-rule="evenodd" d="M66.7606 83.3549L67.7592 82.1831L66.2826 81.7472L57.4003 79.1251L56.7773 78.9412L56.356 79.4356L54.4863 81.6297L53.4997 82.7874L53.4997 82.7874L50.1556 86.7117C50.0638 86.5877 49.9636 86.4711 49.8573 86.3627C49.2732 85.7666 48.447 85.3436 47.5282 85.1727C46.6095 85.0017 45.6883 85.0996 44.9323 85.4464C44.1794 85.7916 43.508 86.4335 43.3387 87.3619C43.1694 88.2903 43.5704 89.1317 44.152 89.7253C44.7361 90.3214 45.5624 90.7444 46.4811 90.9153C47.3999 91.0863 48.3211 90.9884 49.0771 90.6416C49.5671 90.4169 50.0225 90.0666 50.3275 89.5934L55.5821 83.4273L62.3096 85.4945L59.0473 89.3227C58.9452 89.1865 58.8331 89.0592 58.7143 88.9421C58.1122 88.3485 57.2651 87.9258 56.3261 87.7511C55.3871 87.5764 54.4465 87.6665 53.6745 88.0045C52.9086 88.3398 52.208 88.9766 52.0356 89.9216C51.8633 90.8666 52.2934 91.7138 52.8908 92.3027C53.4929 92.8964 54.34 93.3191 55.279 93.4938C56.218 93.6685 57.1586 93.5784 57.9306 93.2404C58.4148 93.0284 58.873 92.6959 59.188 92.2412L65.7806 84.5049C65.7813 84.5041 65.782 84.5033 65.7826 84.5025L66.7606 83.3549ZM56.9951 81.7692L57.457 81.2272L64.2398 83.2295L63.7225 83.8364L56.9951 81.7692ZM57.427 91.2241L57.562 91.0657C57.5859 91.0236 57.5979 90.9864 57.6032 90.9574C57.621 90.86 57.6 90.6474 57.3144 90.3658C57.0335 90.0889 56.5658 89.83 55.9673 89.7187C55.3689 89.6073 54.8406 89.6809 54.4805 89.8385C54.1142 89.9989 54.0197 90.19 54.0019 90.2874C53.9841 90.3849 54.0051 90.5975 54.2907 90.8791C54.5716 91.156 55.0393 91.4149 55.6377 91.5262C56.2362 91.6376 56.7645 91.564 57.1246 91.4064C57.2586 91.3477 57.3562 91.2849 57.427 91.2241ZM48.6764 88.4475L48.6063 88.5298C48.5743 88.5673 48.5455 88.6066 48.52 88.6472C48.4521 88.7062 48.361 88.766 48.2397 88.8217C47.9001 88.9774 47.4029 89.0525 46.8399 88.9478C46.2769 88.843 45.8388 88.5939 45.5764 88.3262C45.3116 88.0559 45.2841 87.8418 45.3049 87.7277C45.3257 87.6137 45.4269 87.4235 45.7697 87.2663C46.1092 87.1106 46.6065 87.0355 47.1695 87.1402C47.7324 87.245 48.1706 87.4941 48.433 87.7618C48.6978 88.032 48.7253 88.2461 48.7045 88.3602C48.6998 88.3859 48.691 88.4154 48.6764 88.4475Z" fill="#FF0000"/>
<path fill-rule="evenodd" clip-rule="evenodd" d="M191.361 32.8583L192.485 31.8065L191.067 31.207L173.02 23.5777L172.422 23.3248L171.948 23.7686L167.494 27.9351L166.384 28.9743L166.389 28.9767L156.013 38.7226C155.842 37.9801 155.481 37.2741 154.996 36.6521C154.068 35.462 152.636 34.4966 150.939 33.9774C149.241 33.4581 147.518 33.4582 146.089 33.9272C144.663 34.3952 143.443 35.3699 142.999 36.8391C142.555 38.3084 143.03 39.8015 143.956 40.9888C144.884 42.1789 146.316 43.1443 148.014 43.6636C149.711 44.1829 151.435 44.1827 152.864 43.7137C153.676 43.447 154.422 43.0158 154.995 42.4222L155.427 42.0167L168.384 29.8464L184.262 36.767L174.087 46.3055C173.904 45.5489 173.52 44.8308 173.012 44.2009C172.045 43.0052 170.565 42.0294 168.818 41.4948C167.071 40.9603 165.301 40.9421 163.838 41.3946C162.38 41.8451 161.119 42.8077 160.671 44.2931C160.222 45.7785 160.738 47.2844 161.699 48.475C162.665 49.6707 164.145 50.6465 165.893 51.1811C167.64 51.7156 169.41 51.7338 170.873 51.2813C171.708 51.0233 172.478 50.5972 173.068 50.0012L173.633 49.4718L189.023 35.0456L191.361 32.8583ZM187.663 33.5793L188.87 32.4496L172.84 25.6728L169.972 28.3564L185.848 35.2767L187.655 33.5864L187.659 33.5824C187.661 33.5813 187.662 33.5803 187.663 33.5793ZM153.535 41.0496L153.395 41.181C153.099 41.4382 152.713 41.6546 152.237 41.811C151.243 42.1371 149.943 42.1624 148.592 41.749C147.24 41.3356 146.174 40.5867 145.529 39.7591C144.881 38.9288 144.707 38.101 144.912 37.4242C145.116 36.7473 145.718 36.1572 146.716 35.83C147.709 35.5038 149.009 35.4785 150.36 35.892C151.712 36.3054 152.778 37.0543 153.423 37.8818C154.071 38.7121 154.245 39.5399 154.041 40.2167C153.95 40.5165 153.781 40.7992 153.535 41.0496ZM164.432 43.3078C163.391 43.6294 162.783 44.2175 162.583 44.8781C162.384 45.5388 162.564 46.3681 163.251 47.2182C163.933 48.063 165.055 48.8333 166.471 49.2665C167.887 49.6997 169.245 49.6878 170.279 49.3681C171.32 49.0464 171.928 48.4584 172.128 47.7977C172.327 47.1371 172.147 46.3078 171.46 45.4577C170.778 44.6129 169.656 43.8427 168.24 43.4094C166.824 42.9762 165.466 42.9881 164.432 43.3078Z" fill="#FF0000"/>
<path fill-rule="evenodd" clip-rule="evenodd" d="M69.6694 96.6434L70.0121 95.7039L68.1332 95.0186L67.7905 95.958L66.6649 99.0435L63.8431 97.5953L62.9534 97.1388L62.0402 98.9181L62.9299 99.3747L65.9742 100.937L64.3306 105.443L63.9879 106.382L65.8668 107.068L66.2095 106.128L67.7675 101.857L71.2858 103.663L72.1755 104.119L73.0886 102.34L72.1989 101.883L68.4582 99.9637L69.6694 96.6434Z" fill="white"/>
<path fill-rule="evenodd" clip-rule="evenodd" d="M103.293 18.6812L102.958 17.7389L101.074 18.4088L101.409 19.3511L102.377 22.0731L98.0841 23.599L97.1419 23.9339L97.8118 25.8184L98.754 25.4834L103.046 23.9576L103.754 25.9467L104.089 26.889L105.973 26.2191L105.638 25.2768L104.931 23.2877L108.176 22.134L109.119 21.799L108.449 19.9145L107.507 20.2495L104.261 21.4032L103.293 18.6812Z" fill="white"/>
<path fill-rule="evenodd" clip-rule="evenodd" d="M160.158 58.9671L159.534 58.1853L157.971 59.4323L158.594 60.2141L159.039 60.7721L158.445 61.1681L157.613 61.7228L158.723 63.3869L159.555 62.8322L160.291 62.3415L160.842 63.0331L161.466 63.8149L163.029 62.5679L162.406 61.7861L161.961 61.2281L162.555 60.8322L163.387 60.2775L162.277 58.6134L161.445 59.1681L160.709 59.6587L160.158 58.9671Z" fill="white"/>
<path fill-rule="evenodd" clip-rule="evenodd" d="M65 36.4794C65.0418 36.4544 65.0862 36.428 65.133 36.4005C65.507 36.1805 66.0302 35.8893 66.6271 35.6034C67.872 35.0074 69.2493 34.5288 70.2564 34.5854C70.7246 34.6118 71.0153 34.748 71.2041 34.95C71.3999 35.1593 71.619 35.5814 71.649 36.4448C71.7107 38.2191 70.9567 41.3538 68.5889 46.5879L68.1767 47.499L69.9989 48.3233L70.4111 47.4122C72.7933 42.1464 73.7268 38.6465 73.6478 36.3753C73.6075 35.2159 73.2993 34.2625 72.665 33.5841C72.0238 32.8982 71.1816 32.6343 70.3686 32.5886C68.8132 32.5012 67.0342 33.1911 65.7634 33.7995C65.1026 34.1159 64.5282 34.4359 64.119 34.6766C63.9139 34.7972 63.749 34.8987 63.6342 34.9709C63.5767 35.0069 63.5317 35.0357 63.5003 35.056L63.4636 35.0798L63.4532 35.0867L63.45 35.0888L63.4489 35.0895C63.4488 35.0896 63.4486 35.0897 63.4839 35.1433C63.4838 35.1434 63.4837 35.1434 63.4836 35.1435L63.4482 35.09C63.1458 35.29 62.9875 35.6261 63.0006 35.9638C63.0002 35.9758 63 35.9879 63 36V53.6712C62.5457 53.516 62.0572 53.4442 61.5762 53.4376C60.3496 53.4206 58.9671 53.8077 57.683 54.549C56.3989 55.2904 55.3724 56.2942 54.7738 57.3649C54.1872 58.4144 53.9294 59.7079 54.5732 60.823C55.2169 61.938 56.4661 62.3616 57.6683 62.3782C58.8948 62.3952 60.2774 62.0081 61.5615 61.2668C62.8455 60.5254 63.872 59.5216 64.4706 58.4509C64.9054 57.6732 65.1595 56.7614 65 55.8875V55.111V36.4794ZM56.5196 58.3409C56.1132 59.0678 56.1541 59.5612 56.3052 59.823C56.4564 60.0847 56.8632 60.3669 57.6959 60.3784C58.5042 60.3896 59.5353 60.1272 60.5615 59.5347C61.5876 58.9423 62.3305 58.1805 62.7249 57.4749C63.1313 56.748 63.0904 56.2546 62.9392 55.9928C62.7881 55.7311 62.3813 55.4489 61.5486 55.4374C60.7403 55.4262 59.7092 55.6886 58.683 56.2811C57.6568 56.8735 56.914 57.6353 56.5196 58.3409Z" fill="#FF0000"/>
<defs>
<filter id="filter0_f_1_3119" x="26.422" y="0.723999" width="224.68" height="172.547" filterUnits="userSpaceOnUse" color-interpolation-filters="sRGB">
<feFlood flood-opacity="0" result="BackgroundImageFix"/>
<feBlend mode="normal" in="SourceGraphic" in2="BackgroundImageFix" result="shape"/>
<feGaussianBlur stdDeviation="16" result="effect1_foregroundBlur_1_3119"/>
</filter>
<linearGradient id="paint0_linear_1_3119" x1="58.422" y1="141.271" x2="159.124" y2="-7.79459" gradientUnits="userSpaceOnUse">
<stop stop-color="#FF2E00"/>
<stop offset="0.989583" stop-color="#0500FF"/>
</linearGradient>
<linearGradient id="paint1_linear_1_3119" x1="58.422" y1="141.271" x2="159.124" y2="-7.79459" gradientUnits="userSpaceOnUse">
<stop stop-color="#FF2E00"/>
<stop offset="0.989583" stop-color="#0500FF"/>
</linearGradient>
<linearGradient id="paint2_linear_1_3119" x1="58.422" y1="141.271" x2="159.124" y2="-7.79459" gradientUnits="userSpaceOnUse">
<stop stop-color="#FF2E00"/>
<stop offset="0.989583" stop-color="#0500FF"/>
</linearGradient>
<linearGradient id="paint3_linear_1_3119" x1="58.422" y1="141.271" x2="159.124" y2="-7.79459" gradientUnits="userSpaceOnUse">
<stop stop-color="#FF2E00"/>
<stop offset="0.989583" stop-color="#0500FF"/>
</linearGradient>
<linearGradient id="paint4_linear_1_3119" x1="58.422" y1="141.271" x2="159.124" y2="-7.79459" gradientUnits="userSpaceOnUse">
<stop stop-color="#FF2E00"/>
<stop offset="0.989583" stop-color="#0500FF"/>
</linearGradient>
</defs>
</svg>
