<svg width="240" height="175" viewBox="0 0 240 175" fill="none" xmlns="http://www.w3.org/2000/svg">
<g filter="url(#filter0_f_1_3175)">
<path d="M139.171 58.9369C139.171 61.3408 137.733 61.7396 134.083 61.7396C130.477 61.7396 117.921 61.2854 117.932 58.8482V36.4942C117.932 34.1013 128.918 32.1516 132.568 32.1516C133.075 32.1523 133.582 32.1931 134.083 32.2735C136.959 32.7166 139.171 34.4448 139.171 36.4942V58.9369Z" fill="url(#paint0_linear_1_3175)"/>
<path d="M175.114 39.9846C177.26 38.899 180.323 40.6604 181.982 43.9173C183.63 47.1742 183.232 53.7081 181.098 54.7605L167.394 61.7064C165.259 62.792 162.184 61.0306 160.536 57.7737C158.888 54.5168 159.287 48.0051 161.421 46.8973L174.594 40.2505L175.114 39.9846Z" fill="url(#paint1_linear_1_3175)"/>
<path d="M72.1969 54.7937L85.9008 61.7396C88.0354 62.8474 91.1102 61.0638 92.7582 57.8069C94.4062 54.55 94.008 46.0161 91.8734 44.9305L78.7004 38.2837L78.1806 38.0178C76.0349 36.91 72.9712 38.6936 71.3121 41.9505C69.653 45.2074 70.0512 53.708 72.1969 54.7937Z" fill="url(#paint2_linear_1_3175)"/>
<path d="M161.79 79.1431H182.948V106.572H186.543V136.796H159.777V143H101.518V136.796H74.752V106.572H78.3466V79.1431H163.505V106.572H161.79V79.1431Z" fill="url(#paint3_linear_1_3175)"/>
</g>
<path d="M105.507 15V13H122.859V15H117.507V20.2776C118.486 20.5027 119.378 20.8586 120.13 21.3222C121.471 22.1487 122.507 23.4217 122.507 25V26H122.505L122.584 40.9947C122.587 41.547 122.142 41.9971 121.589 42C121.037 42.0029 120.587 41.5575 120.584 41.0052L120.505 25.8998L120.507 25.8998V25C120.507 24.3742 120.091 23.6472 119.081 23.0248C118.637 22.7515 118.106 22.5182 117.507 22.3434V27.8453H115.507V22.0129C115.343 22.0044 115.176 22 115.007 22C113.363 22 111.926 22.4123 110.933 23.0248C109.923 23.6472 109.507 24.3742 109.507 25V41C109.507 41.5523 109.059 42 108.507 42C107.954 42 107.507 41.5523 107.507 41V25C107.507 23.4217 108.542 22.1487 109.883 21.3222C111.24 20.4856 113.054 20 115.007 20C115.175 20 115.342 20.0036 115.507 20.0107V15H113.507V19.4342H111.507V15H105.507Z" fill="white"/>
<path fill-rule="evenodd" clip-rule="evenodd" d="M115.007 36C113.034 36 111.205 36.5519 109.841 37.4958C108.482 38.4371 107.507 39.8364 107.507 41.5C107.507 43.1636 108.482 44.5629 109.841 45.5042C111.205 46.4481 113.034 47 115.007 47C116.979 47 118.809 46.4481 120.172 45.5042C121.532 44.5629 122.507 43.1636 122.507 41.5C122.507 39.8364 121.532 38.4371 120.172 37.4958C118.809 36.5519 116.979 36 115.007 36ZM109.507 41.5C109.507 40.6783 109.987 39.8276 110.98 39.1402C111.969 38.4555 113.389 38 115.007 38C116.624 38 118.045 38.4555 119.034 39.1402C120.027 39.8276 120.507 40.6783 120.507 41.5C120.507 42.3217 120.027 43.1724 119.034 43.8598C118.045 44.5445 116.624 45 115.007 45C113.389 45 111.969 44.5445 110.98 43.8598C109.987 43.1724 109.507 42.3217 109.507 41.5Z" fill="#FF0000"/>
<path d="M124.249 44.9665L127.734 62.0587L125.775 62.4583L122.289 45.3661L124.249 44.9665Z" fill="#FF0000"/>
<path d="M107.662 45.3658L105.78 54.6038L103.821 54.2047L105.702 44.9667L107.662 45.3658Z" fill="#FF0000"/>
<path fill-rule="evenodd" clip-rule="evenodd" d="M60.3206 34.9436C58.8854 34.2784 57.2757 34.5771 55.8986 35.3696C54.4649 36.1947 53.1585 37.611 52.2546 39.3856C51.3482 41.1648 50.9851 43.0584 51.1718 44.7046C51.3572 46.3396 52.1132 47.8627 53.5772 48.6072C53.6202 48.6291 53.664 48.6476 53.7084 48.6627L67.2816 55.5534C67.7741 55.8034 68.376 55.6069 68.626 55.1144C68.876 54.6219 68.6795 54.0201 68.187 53.77L54.4832 46.8131C54.4497 46.7961 54.4157 46.7812 54.3813 46.7682C53.7609 46.4012 53.29 45.6341 53.159 44.4792C53.0222 43.2728 53.284 41.771 54.0367 40.2934C54.7918 38.811 55.8468 37.707 56.8962 37.103C57.9532 36.4947 58.8825 36.4479 59.5554 36.7953C59.6 36.8184 59.6456 36.8377 59.6917 36.8535L73.254 43.7442C73.7464 43.9943 74.3483 43.798 74.5985 43.3056C74.8487 42.8132 74.6523 42.2113 74.1599 41.9611L60.4672 35.0041C60.4192 34.9798 60.3702 34.9597 60.3206 34.9436Z" fill="white"/>
<path fill-rule="evenodd" clip-rule="evenodd" d="M66.8418 51.4561C66.9784 52.6715 67.4922 53.4559 68.1654 53.7979C68.8387 54.1398 69.7741 54.0915 70.8338 53.4837C71.8847 52.8809 72.9396 51.7806 73.6903 50.2979C74.441 48.8152 74.7039 47.3127 74.5685 46.1073C74.4319 44.8919 73.9181 44.1075 73.2449 43.7655C72.5716 43.4236 71.6362 43.4719 70.5765 44.0797C69.5256 44.6825 68.4707 45.7828 67.72 47.2655C66.9693 48.7482 66.7064 50.2507 66.8418 51.4561ZM64.8554 51.6783C64.6705 50.0326 65.0354 48.1402 65.9368 46.3598C66.8382 44.5794 68.1469 43.1663 69.5818 42.3433C71.0078 41.5254 72.6805 41.2357 74.1483 41.9812C75.6161 42.7267 76.3711 44.2494 76.5549 45.8851C76.7399 47.5308 76.3749 49.4232 75.4735 51.2036C74.5721 52.984 73.2634 54.3971 71.8285 55.2201C70.4025 56.038 68.7298 56.3277 67.262 55.5822C65.7942 54.8367 65.0392 53.314 64.8554 51.6783ZM77.2779 42.7971L86.3621 45.3003L85.8308 47.2285L76.7466 44.7253L77.2779 42.7971ZM84.6903 66.8525L71.0462 56.015L69.8023 57.5811L83.4463 68.4186L84.6903 66.8525Z" fill="#FF0000"/>
<path fill-rule="evenodd" clip-rule="evenodd" d="M55.8939 31H54.8939V33H55.8939H58.8939V43.5432V44.5432H60.8939V43.5432V33H63.8939V35.4342V36.4342H65.8939V35.4342V33H71.2568H72.2568V31H71.2568H65.8939H63.8939H60.8939H58.8939H55.8939Z" fill="white"/>
<path d="M177.132 31H159.769V33H166.132V36.4342H168.132V33H171.132V35.2209L157.866 41.9611C157.374 42.2112 157.178 42.8132 157.428 43.3055C157.678 43.7979 158.28 43.9943 158.772 43.7441L171.132 37.4643V44.5432H173.132V36.5947C173.705 36.5248 174.386 36.6747 175.13 37.103C176.179 37.7069 177.234 38.8109 177.989 40.2933C178.742 41.7709 179.004 43.2727 178.867 44.4791C178.736 45.634 178.265 46.4011 177.645 46.7682C177.61 46.7811 177.576 46.796 177.543 46.813L163.839 53.77C163.347 54.02 163.15 54.6219 163.4 55.1143C163.65 55.6068 164.252 55.8033 164.745 55.5533L178.318 48.6627C178.362 48.6475 178.406 48.629 178.449 48.6072C179.913 47.8626 180.669 46.3395 180.854 44.7045C181.041 43.0584 180.678 41.1648 179.772 39.3855C178.868 37.611 177.561 36.1947 176.128 35.3696C175.194 34.8321 174.153 34.5218 173.132 34.5851V33H177.132V31Z" fill="white"/>
<path fill-rule="evenodd" clip-rule="evenodd" d="M163.861 53.7979C164.534 53.4559 165.048 52.6715 165.184 51.4561C165.32 50.2507 165.057 48.7482 164.306 47.2655C163.556 45.7828 162.501 44.6825 161.45 44.0797C160.39 43.4719 159.455 43.4236 158.781 43.7655C158.108 44.1075 157.594 44.8919 157.458 46.1073C157.322 47.3127 157.585 48.8152 158.336 50.2979C159.087 51.7806 160.142 52.8809 161.192 53.4837C162.252 54.0915 163.188 54.1398 163.861 53.7979ZM166.089 46.3598C166.991 48.1402 167.356 50.0326 167.171 51.6783C166.987 53.314 166.232 54.8367 164.764 55.5822C163.296 56.3277 161.624 56.038 160.198 55.2201C158.763 54.3971 157.454 52.984 156.553 51.2036C155.651 49.4232 155.286 47.5308 155.471 45.8851C155.655 44.2494 156.41 42.7267 157.878 41.9812C159.346 41.2357 161.018 41.5254 162.444 42.3433C163.879 43.1663 165.188 44.5794 166.089 46.3598ZM146.196 47.2285L155.28 44.7253L154.748 42.7971L145.664 45.3003L146.196 47.2285ZM148.58 68.4186L162.224 57.5811L160.98 56.015L147.336 66.8525L148.58 68.4186Z" fill="#FF0000"/>
<path fill-rule="evenodd" clip-rule="evenodd" d="M130.407 69H133.5C134.546 69 135.558 69.3956 136.311 70.1138C137.066 70.8336 137.5 71.8203 137.5 72.8598V75H153V72.8211C153.01 71.8064 153.433 70.8448 154.165 70.1359C154.894 69.4285 155.874 69.0262 156.895 69.0003L156.907 69H160C161.046 69 162.058 69.3956 162.811 70.1138C163.566 70.8336 164 71.8203 164 72.8598V120H173V134H61V120H70V72.8582C70 71.8189 70.4338 70.8325 71.1889 70.1131C71.9423 69.3953 72.9543 69 74 69L74.005 69.0286H77C78.0457 69.0286 79.0577 69.4239 79.8111 70.1417C80.5662 70.8611 81 71.8475 81 72.8868V75H126.5V72.8211C126.51 71.8064 126.933 70.8448 127.665 70.1359C128.394 69.4285 129.374 69.0262 130.395 69.0003L130.407 69ZM79 72.8868C79 72.41 78.8017 71.9424 78.4315 71.5897C78.0598 71.2355 77.5456 71.0286 77 71.0286H73.92L73.9153 71.0017C73.4014 71.0219 72.9209 71.2253 72.5685 71.5612C72.1983 71.9138 72 72.3814 72 72.8582V120H79V104H75V100H79V91H75V87H79V72.8868ZM81 120V104H97V100H81V91H100V87H81V79H126.5V83.7717H128.5V79H135.5V87H135V91H153V100H137V104H153V120H137V109H135V120H128V111C128 110.448 127.552 110 127 110C126.448 110 126 110.448 126 111V120H81ZM63 122V132H171V122H63ZM153 79V87H137.5V79H153ZM162 72.8598V120H155V104H159V100H155V91H159V87H155V72.8368C155.006 72.3722 155.2 71.9179 155.557 71.5718C155.914 71.2256 156.406 71.0162 156.934 71H160C160.545 71 161.06 71.207 161.431 71.5614C161.802 71.9143 162 72.3824 162 72.8598ZM135.5 72.8598V75H128.5V72.8368C128.506 72.3722 128.7 71.9179 129.057 71.5718C129.414 71.2256 129.906 71.0162 130.434 71H133.5C134.045 71 134.56 71.207 134.931 71.5614C135.302 71.9143 135.5 72.3824 135.5 72.8598Z" fill="white"/>
<path fill-rule="evenodd" clip-rule="evenodd" d="M86.1482 7.22577L86.2662 6.23276L84.2802 5.9967L84.1622 6.98971L83.9201 9.0263L81.8889 8.78455L80.8959 8.66637L80.6595 10.6523L81.6525 10.7705L83.684 11.0123L83.4432 13.0383L83.3252 14.0313L85.3112 14.2674L85.4293 13.2743L85.67 11.2487L87.7026 11.4906L88.6956 11.6088L88.9319 9.6228L87.9389 9.50462L85.9061 9.26267L86.1482 7.22577Z" fill="white"/>
<path fill-rule="evenodd" clip-rule="evenodd" d="M179.625 69.7809L180.406 69.1562L179.156 67.5945L178.375 68.2192L176.681 69.5747L175.8 68.4L175.2 67.6L173.6 68.8L174.2 69.6L175.118 70.8247L173.375 72.2192L172.594 72.8439L173.844 74.4056L174.625 73.7809L176.319 72.4254L177.2 73.6L177.8 74.4L179.4 73.2L178.8 72.4L177.882 71.1754L179.625 69.7809Z" fill="white"/>
<path fill-rule="evenodd" clip-rule="evenodd" d="M138.857 16.4855L138.343 15.6281L136.628 16.657L137.142 17.5145L138.128 19.157L136.485 20.1425L135.628 20.657L136.657 22.372L137.514 21.8575L139.157 20.872L140.142 22.5145L140.657 23.372L142.372 22.343L141.857 21.4855L140.872 19.843L142.514 18.8575L143.372 18.343L142.343 16.6281L141.485 17.1425L139.843 18.1281L138.857 16.4855Z" fill="white"/>
<path fill-rule="evenodd" clip-rule="evenodd" d="M196.359 105.191L197.056 104.475L195.624 103.079L194.926 103.795L193.749 105.004L192.54 103.827L191.824 103.129L190.428 104.562L191.145 105.259L192.353 106.437L191.176 107.645L190.478 108.362L191.911 109.757L192.609 109.041L193.786 107.832L194.995 109.009L195.711 109.707L197.106 108.275L196.39 107.577L195.181 106.4L196.359 105.191Z" fill="white"/>
<path d="M93.6649 48.985L91.6651 49.0152L91.6901 50.6702L90.0351 50.6952L90.0653 52.695L91.7203 52.67L91.7453 54.325L93.7451 54.2948L93.7201 52.6398L95.3751 52.6148L95.3449 50.615L93.6899 50.64L93.6649 48.985Z" fill="white"/>
<path fill-rule="evenodd" clip-rule="evenodd" d="M59 81V80H57V81V82H56H55V84H56H57V85V86H59V85V84H60H61V82H60H59V81Z" fill="white"/>
<path fill-rule="evenodd" clip-rule="evenodd" d="M93.2928 111.879L92.5857 111.172L91.1715 112.586L91.8786 113.293L92.5857 114L91.8786 114.707L91.1715 115.414L92.5857 116.828L93.2928 116.121L93.9999 115.414L94.707 116.121L95.4141 116.828L96.8284 115.414L96.1213 114.707L95.4141 114L96.1213 113.293L96.8284 112.586L95.4141 111.172L94.707 111.879L93.9999 112.586L93.2928 111.879Z" fill="white"/>
<path d="M140.037 57.7975L138.037 57.8228L138.052 59.0077L136.867 59.0227L136.893 61.0226L138.078 61.0076L138.093 62.1926L140.093 62.1673L140.078 60.9822L141.263 60.9672L141.237 58.9674L140.052 58.9824L140.037 57.7975Z" fill="white"/>
<path fill-rule="evenodd" clip-rule="evenodd" d="M101 97C101 88.1634 108.163 81 117 81C125.837 81 133 88.1634 133 97C133 105.837 125.837 113 117 113C108.163 113 101 105.837 101 97ZM117 79C107.059 79 99 87.0589 99 97C99 106.941 107.059 115 117 115C126.941 115 135 106.941 135 97C135 87.0589 126.941 79 117 79ZM115.257 93.6009L117 88.2361L118.743 93.6009L119.694 94.2919H125.335L120.771 97.6074L120.408 98.7255L122.151 104.09L117.588 100.775H116.412L111.849 104.09L113.592 98.7255L113.229 97.6074L108.665 94.2919H114.306L115.257 93.6009ZM116.049 84.691L113.579 92.2919H105.587L105 94.1009L111.465 98.7984L108.995 106.399L110.534 107.517L117 102.82L123.466 107.517L125.004 106.399L122.535 98.7984L129 94.1009L128.413 92.2919H120.421L117.951 84.691H116.049Z" fill="#FF0000"/>
<defs>
<filter id="filter0_f_1_3175" x="38.2874" y="0.151611" width="180.255" height="174.848" filterUnits="userSpaceOnUse" color-interpolation-filters="sRGB">
<feFlood flood-opacity="0" result="BackgroundImageFix"/>
<feBlend mode="normal" in="SourceGraphic" in2="BackgroundImageFix" result="shape"/>
<feGaussianBlur stdDeviation="16" result="effect1_foregroundBlur_1_3175"/>
</filter>
<linearGradient id="paint0_linear_1_3175" x1="70.2874" y1="143" x2="181.01" y2="26.8763" gradientUnits="userSpaceOnUse">
<stop stop-color="#FF2E00"/>
<stop offset="0.989583" stop-color="#0500FF"/>
</linearGradient>
<linearGradient id="paint1_linear_1_3175" x1="70.2874" y1="143" x2="181.01" y2="26.8763" gradientUnits="userSpaceOnUse">
<stop stop-color="#FF2E00"/>
<stop offset="0.989583" stop-color="#0500FF"/>
</linearGradient>
<linearGradient id="paint2_linear_1_3175" x1="70.2874" y1="143" x2="181.01" y2="26.8763" gradientUnits="userSpaceOnUse">
<stop stop-color="#FF2E00"/>
<stop offset="0.989583" stop-color="#0500FF"/>
</linearGradient>
<linearGradient id="paint3_linear_1_3175" x1="70.2874" y1="143" x2="181.01" y2="26.8763" gradientUnits="userSpaceOnUse">
<stop stop-color="#FF2E00"/>
<stop offset="0.989583" stop-color="#0500FF"/>
</linearGradient>
</defs>
</svg>
